HIERARCHY
ROOT root
{
	OFFSET 0.000000 0.000000 0.000000
	CHANNELS 6 Xposition Yposition Zposition Zrotation Yrotation Xrotation
	JOINT lhip
	{
		OFFSET 0.058581 -0.082280 -0.017664
		CHANNELS 3 Zrotation Yrotation Xrotation
		JOINT lknee
		{
			OFFSET 0.043451 -0.386469 0.008037
			CHANNELS 3 Zrotation Yrotation Xrotation
			JOINT lankle
			{
				OFFSET -0.014790 -0.426874 -0.037428
				CHANNELS 3 Zrotation Yrotation Xrotation
				JOINT ltoe
				{
					OFFSET 0.041054 -0.060286 0.122042
					CHANNELS 3 Zrotation Yrotation Xrotation
					End Site
					{
						OFFSET 0.000000 0.000000 0.000000
					}
				}
			}
		}
	}
	JOINT rhip
	{
		OFFSET -0.060310 -0.090513 -0.013543
		CHANNELS 3 Zrotation Yrotation Xrotation
		JOINT rknee
		{
			OFFSET -0.043257 -0.383688 -0.004843
			CHANNELS 3 Zrotation Yrotation Xrotation
			JOINT rankle
			{
				OFFSET 0.019056 -0.420046 -0.034562
				CHANNELS 3 Zrotation Yrotation Xrotation
				JOINT rtoe
				{
					OFFSET -0.034840 -0.062106 0.130323
					CHANNELS 3 Zrotation Yrotation Xrotation
					End Site
					{
						OFFSET 0.000000 0.000000 0.000000
					}
				}
			}
		}
	}
	JOINT lowerback
	{
		OFFSET 0.004439 0.124404 -0.038385
		CHANNELS 3 Zrotation Yrotation Xrotation
		JOINT upperback
		{
			OFFSET 0.004488 0.137956 0.026820
			CHANNELS 3 Zrotation Yrotation Xrotation
			JOINT chest
			{
				OFFSET -0.002265 0.056032 0.002855
				CHANNELS 3 Zrotation Yrotation Xrotation
				JOINT lowerneck
				{
					OFFSET -0.013390 0.211636 -0.033468
					CHANNELS 3 Zrotation Yrotation Xrotation
					JOINT upperneck
					{
						OFFSET 0.010113 0.088937 0.050410
						CHANNELS 3 Zrotation Yrotation Xrotation
						End Site
						{
							OFFSET 0.000000 0.000000 0.000000
						}
					}
				}
				JOINT lclavicle
				{
					OFFSET 0.071702 0.114000 -0.018898
					CHANNELS 3 Zrotation Yrotation Xrotation
					JOINT lshoulder
					{
						OFFSET 0.122921 0.045205 -0.019046
						CHANNELS 3 Zrotation Yrotation Xrotation
						JOINT lelbow
						{
							OFFSET 0.255332 -0.015649 -0.022946
							CHANNELS 3 Zrotation Yrotation Xrotation
							JOINT lwrist
							{
								OFFSET 0.265709 0.012698 -0.007375
								CHANNELS 3 Zrotation Yrotation Xrotation
								End Site
								{
									OFFSET 0.000000 0.000000 0.000000
								}
							}
						}
					}
				}
				JOINT rclavicle
				{
					OFFSET -0.082954 0.112472 -0.023707
					CHANNELS 3 Zrotation Yrotation Xrotation
					JOINT rshoulder
					{
						OFFSET -0.113228 0.046853 -0.008472
						CHANNELS 3 Zrotation Yrotation Xrotation
						JOINT relbow
						{
							OFFSET -0.260127 -0.014369 -0.031269
							CHANNELS 3 Zrotation Yrotation Xrotation
							JOINT rwrist
							{
								OFFSET -0.269108 0.006794 -0.006027
								CHANNELS 3 Zrotation Yrotation Xrotation
								End Site
								{
									OFFSET 0.000000 0.000000 0.000000
								}
							}
						}
					}
				}
			}
		}
	}
}
MOTION
Frames: 7
Frame Time: 0.033333
0.657043 0.639636 0.583072 -77.435591 5.453829 39.230847 31.748487 12.878131 -35.841999 -9.362126 3.863297 70.751407 -5.448623 2.228786 11.377514 0.000000 -0.000000 0.000000 -24.671381 -8.074678 -30.002100 2.240596 5.135335 75.079279 4.080943 -1.444975 5.945605 0.000000 -0.000000 0.000000 -2.114670 5.715430 55.887384 -3.086593 1.028626 17.613268 -0.631214 0.806023 -8.709350 -8.895527 -10.459537 -9.023739 15.593817 -10.705566 -11.178212 -27.255079 -24.352603 7.394524 -12.996507 -5.695437 -0.510949 30.139636 -84.523247 -11.488898 7.184492 -13.371624 1.968881 31.273973 32.207896 17.377834 26.231132 3.657582 -0.778334 -24.809981 62.434197 -11.200291 -4.092832 11.654642 18.486161 
0.654414 0.639731 0.582274 -77.406461 5.388634 39.989976 31.724570 13.215221 -36.686447 -8.803448 4.252951 71.451386 -5.742974 1.024144 11.038256 0.000000 -0.000000 0.000000 -24.470575 -8.283593 -30.280616 1.138446 5.422112 74.787289 4.248815 -0.959709 4.740945 0.000000 -0.000000 0.000000 -1.942950 5.618226 56.072443 -3.272105 1.166123 16.902414 -0.638063 0.888308 -8.758504 -9.008402 -11.009902 -8.982854 15.834843 -11.144965 -11.204002 -26.945804 -24.037160 7.366808 -13.051773 -5.691911 -0.572074 29.010940 -85.380095 -10.132227 6.982311 -13.910766 2.421175 31.143785 32.207361 17.692921 26.487277 3.513770 -0.955183 -23.799505 61.916770 -11.139796 -4.306472 12.364446 18.872495 
0.652791 0.639613 0.582064 -77.221852 5.546047 40.364314 31.574993 13.043563 -37.203586 -8.746388 4.174029 71.647028 -5.942717 0.960504 10.800933 0.000000 -0.000000 0.000000 -24.626374 -7.989026 -30.751947 1.286573 5.299944 75.344667 5.260047 -1.174118 5.060518 0.000000 -0.000000 0.000000 -1.818192 5.500932 57.048799 -3.118171 1.339088 16.236713 -0.501131 0.852384 -9.109434 -8.992667 -11.127146 -9.363212 15.830567 -11.443562 -11.489251 -27.203002 -23.765567 7.770384 -13.014243 -5.565360 -0.380653 41.212975 -85.949806 -22.515877 7.603220 -14.439697 0.445907 31.261903 32.064668 17.647565 25.829424 3.332643 -0.845713 -24.715172 62.477492 -11.516356 -5.744626 12.679393 18.216295 
0.651437 0.638881 0.582541 -76.988108 5.897464 40.666703 31.258220 13.088674 -37.864260 -8.735371 3.784439 71.917047 -5.753052 1.501627 10.407926 0.000000 -0.000000 0.000000 -24.609813 -7.995723 -30.835416 1.651776 4.890568 75.710851 4.408932 -1.593152 4.635400 0.000000 -0.000000 0.000000 -1.398425 4.938669 57.667613 -3.211083 1.118127 15.893699 -0.439494 0.619594 -8.636417 -8.678419 -11.675247 -10.787957 16.044431 -11.299668 -12.152117 -27.152706 -23.570057 7.455764 -13.138843 -4.832261 -0.396736 59.393615 -86.394109 -40.438042 8.462336 -14.640855 0.357355 30.638465 32.466327 16.882358 25.471892 3.435950 -0.736302 -24.367034 63.067684 -11.809902 -6.543933 12.732383 16.956461 
0.648449 0.639442 0.582314 -77.001622 5.639087 41.278994 31.097132 13.742076 -38.447802 -8.168800 3.762656 72.289401 -6.082393 1.926483 9.856387 0.000000 -0.000000 0.000000 -24.140316 -8.276263 -32.192971 1.986799 5.724518 76.705570 4.390703 -2.335061 5.761510 0.000000 -0.000000 0.000000 -1.728225 4.999809 57.619784 -3.280845 1.053535 15.983538 -0.225232 0.388669 -9.032166 -8.239640 -12.793819 -10.815337 15.929391 -10.344238 -12.193278 -27.461867 -23.069585 7.966126 -13.038753 -3.514987 -0.982604 86.071082 -86.472811 -66.995166 9.451920 -14.361705 0.468164 30.341184 32.684815 16.995665 25.644839 3.155860 -0.502641 -25.203535 64.134525 -13.369814 -6.285073 13.130652 16.411632 
0.646928 0.639574 0.582751 -76.888421 5.635475 42.834728 30.989374 14.170569 -40.464644 -7.345252 3.970427 72.369029 -7.427743 2.712994 11.369797 0.000000 -0.000000 0.000000 -23.937994 -8.319264 -34.795351 2.138945 6.404650 77.290721 5.956310 -1.537675 8.621566 0.000000 -0.000000 0.000000 -2.066280 4.499477 57.804436 -3.251196 0.889804 14.767168 -0.220564 0.025410 -8.259983 -7.897586 -12.660147 -13.504744 15.981537 -10.107119 -12.532310 -27.696001 -21.398642 7.472093 -13.021226 -3.122615 -1.360964 113.653861 -85.325681 -94.872611 9.596316 -14.992492 -0.345886 29.848143 31.136424 15.466807 25.125063 3.880638 0.062675 -26.173805 67.091711 -13.977165 -4.994185 13.535661 15.746010 
0.645862 0.640231 0.586034 -77.049918 5.527804 44.282756 31.102708 14.793254 -42.454158 -7.438036 3.526614 72.046885 -8.568156 4.142685 14.770309 0.000000 -0.000000 0.000000 -23.993282 -8.441050 -37.460682 4.134255 6.932611 77.972399 5.053047 0.600065 11.170197 0.000000 -0.000000 0.000000 -2.558955 3.704893 59.023242 -3.499818 0.553386 13.088495 -0.183106 -0.270471 -7.506628 -7.069403 -13.302088 -16.447019 16.373517 -9.247683 -14.604525 -28.328114 -19.435021 6.275840 -12.461816 -1.647825 -1.156974 136.765080 -82.318581 -118.354717 10.368465 -14.355309 -2.453888 29.328399 29.789390 14.161881 25.138136 4.324179 0.331032 -30.291760 70.940999 -18.251767 -4.583480 13.862146 13.431797 
